<svg width="30" height="55" viewBox="0 0 30 55" fill="none" xmlns="http://www.w3.org/2000/svg">
<path d="M1.536 13.72C1.536 11.416 3.392 9.496 5.76 9.496C8.128 9.496 9.984 11.416 9.984 13.72C9.984 16.152 8.128 18.008 5.76 18.008C3.392 18.008 1.536 16.152 1.536 13.72ZM1.92 55V23H9.6V55H1.92ZM15.596 13.72C15.596 11.416 17.452 9.496 19.82 9.496C22.188 9.496 24.044 11.416 24.044 13.72C24.044 16.152 22.188 18.008 19.82 18.008C17.452 18.008 15.596 16.152 15.596 13.72ZM15.98 55V23H23.66V55H15.98Z" fill="#CFCFCF"/>
<ellipse cx="6" cy="13.1983" rx="5" ry="4.87611" fill="#1189B7"/>
<ellipse cx="20" cy="13.1983" rx="5" ry="4.87611" fill="#7DCC57"/>
</svg>
