<svg width="384" height="69" viewBox="0 0 384 69" fill="none" xmlns="http://www.w3.org/2000/svg">
<path d="M14.336 55V17.56H0.96V10.2H35.776V17.56H22.336V55H14.336ZM46.35 10.2V25.24C48.206 23.512 50.83 22.424 54.414 22.424C63.95 22.424 68.11 30.36 68.11 35.928V55H60.43V36.12C60.43 31.576 57.102 29.528 53.39 29.528C49.678 29.528 46.35 31.576 46.35 36.12V55H38.67V10.2H46.35ZM79.536 34.52H95.6C94.256 31.384 91.376 29.592 87.536 29.592C83.76 29.592 80.88 31.384 79.536 34.52ZM87.536 48.536C90.736 48.536 93.232 47.32 94.768 45.08H103.152C101.04 51.544 95.344 55.576 87.6 55.576C77.68 55.576 71.024 48.92 71.024 39C71.024 29.144 77.68 22.552 87.6 22.552C97.52 22.552 104.112 29.144 104.112 39C104.112 39.896 104.048 40.728 103.984 41.56H78.96C79.792 45.976 82.992 48.536 87.536 48.536ZM115.082 55L100.938 10.2H109.194L119.114 42.136L128.97 10.2H137.226L134.41 19.096L141.578 42.136L151.434 10.2H159.69L145.546 55H137.546L130.314 32.088L123.082 55H115.082ZM164.724 34.52H180.788C179.444 31.384 176.564 29.592 172.724 29.592C168.948 29.592 166.068 31.384 164.724 34.52ZM172.724 48.536C175.924 48.536 178.42 47.32 179.956 45.08H188.34C186.228 51.544 180.532 55.576 172.788 55.576C162.868 55.576 156.212 48.92 156.212 39C156.212 29.144 162.868 22.552 172.788 22.552C182.708 22.552 189.3 29.144 189.3 39C189.3 39.896 189.236 40.728 189.172 41.56H164.148C164.98 45.976 168.18 48.536 172.724 48.536ZM191.984 10.2H199.664V26.136C201.2 24.152 204.464 22.488 209.072 22.488C218.416 22.488 225.072 29.144 225.072 39.064C225.072 48.92 218.416 55.512 208.688 55.512C199.344 55.512 191.984 49.368 191.984 39.064V10.2ZM217.392 39C217.392 33.048 213.872 29.528 208.496 29.528C203.184 29.528 199.664 33.048 199.664 39C199.664 44.952 203.184 48.472 208.496 48.472C213.872 48.472 217.392 44.952 217.392 39ZM227.023 32.6C227.023 18.648 235.663 9.368 249.615 9.368C263.567 9.368 272.271 18.648 272.271 32.6C272.271 46.616 263.567 55.896 249.615 55.896C235.663 55.896 227.023 46.616 227.023 32.6ZM235.023 32.6C235.023 42.392 240.399 48.536 249.615 48.536C258.767 48.536 264.271 42.392 264.271 32.6C264.271 22.872 258.767 16.728 249.615 16.728C240.399 16.728 235.023 22.872 235.023 32.6ZM275.17 37.08C275.17 27.352 281.314 22.424 291.042 22.424V29.464C285.922 29.464 282.85 31.96 282.85 37.08V55H275.17V37.08ZM293.599 13.72C293.599 11.416 295.455 9.496 297.823 9.496C300.191 9.496 302.047 11.416 302.047 13.72C302.047 16.152 300.191 18.008 297.823 18.008C295.455 18.008 293.599 16.152 293.599 13.72ZM293.983 55V23H301.663V55H293.983ZM337.298 39.064V53.72C337.298 62.168 330.962 68.184 321.298 68.184C314.834 68.184 309.65 65.432 306.322 61.208L312.594 56.792C314.322 58.904 316.946 61.144 321.362 61.144C326.674 61.144 329.618 58.008 329.618 53.72V51.864C328.082 53.848 324.818 55.512 320.146 55.512C310.866 55.512 304.21 48.856 304.21 38.936C304.21 29.08 310.866 22.488 320.722 22.488C330.642 22.488 337.298 29.144 337.298 39.064ZM329.618 39C329.618 33.048 326.098 29.528 320.786 29.528C315.41 29.528 311.89 33.048 311.89 39C311.89 44.952 315.41 48.472 320.786 48.472C326.098 48.472 329.618 44.952 329.618 39ZM340.411 13.72C340.411 11.416 342.267 9.496 344.635 9.496C347.003 9.496 348.859 11.416 348.859 13.72C348.859 16.152 347.003 18.008 344.635 18.008C342.267 18.008 340.411 16.152 340.411 13.72ZM340.795 55V23H348.475V55H340.795ZM366.703 22.424C377.263 22.424 381.423 30.36 381.423 35.928V55H373.743V36.12C373.743 31.576 370.415 29.528 366.703 29.528C362.991 29.528 359.663 31.576 359.663 36.12V55H351.983V35.928C351.983 30.36 356.143 22.424 366.703 22.424Z" fill="#CFCFCF"/>
<circle cx="298" cy="14" r="5" fill="#1189B7"/>
<circle cx="345" cy="14" r="5" fill="#7DCC57"/>
</svg>
